<?xml version="1.0" encoding="UTF-8" standalone="no"?>
<!DOCTYPE svg PUBLIC "-//W3C//DTD SVG 1.1//EN"
 "http://www.w3.org/Graphics/SVG/1.1/DTD/svg11.dtd">
<!-- Generated by graphviz version 2.43.0 (0)
 -->
<!-- Title: G Pages: 1 -->
<svg width="276pt" height="271pt"
 viewBox="0.00 0.00 276.00 271.00" xmlns="http://www.w3.org/2000/svg" xmlns:xlink="http://www.w3.org/1999/xlink">
<g id="graph0" class="graph" transform="scale(1 1) rotate(0) translate(4 267)">
<title>G</title>
<polygon fill="white" stroke="transparent" points="-4,4 -4,-267 272,-267 272,4 -4,4"/>
<g id="clust1" class="cluster">
<title>clusterNc0b49edac90e4f6283c69fd89054183e</title>
<polygon fill="none" stroke="black" points="8,-180 8,-255 130,-255 130,-180 8,-180"/>
<text text-anchor="start" x="16" y="-240.8" font-family="Times,serif" font-style="italic" text-decoration="underline" font-size="14.00">Population in 2022</text>
</g>
<g id="clust2" class="cluster">
<title>clusterN6efa67f2ae3743aa8f91165ca6726f01</title>
<polygon fill="none" stroke="black" points="138,-180 138,-255 260,-255 260,-180 138,-180"/>
<text text-anchor="start" x="146" y="-240.8" font-family="Times,serif" font-style="italic" text-decoration="underline" font-size="14.00">Population in 2021</text>
</g>
<g id="clust3" class="cluster">
<title>clusternc5b461f305574d14bd18aaf4e9951bbbb3</title>
<polygon fill="none" stroke="black" points="59,-8 59,-172 209,-172 209,-8 59,-8"/>
<text text-anchor="start" x="98.5" y="-157.8" font-family="Times,serif" font-weight="bold" font-size="14.00">RelativeSize</text>
<text text-anchor="start" x="79" y="-143.8" font-family="Times,serif" font-style="italic" font-size="14.00">Population increase</text>
</g>
<!-- Nc0b49edac90e4f6283c69fd89054183e -->
<g id="node1" class="node">
<title>Nc0b49edac90e4f6283c69fd89054183e</title>
<text text-anchor="start" x="84.5" y="-202.3" font-family="Times,serif" font-size="14.00">Obj</text>
</g>
<!-- Nb752bbd30a1947b9a8e32bc0c3f715a7 -->
<g id="node5" class="node">
<title>Nb752bbd30a1947b9a8e32bc0c3f715a7</title>
<polygon fill="none" stroke="black" points="125,-128 67,-128 67,-90 125,-90 125,-128"/>
<text text-anchor="start" x="85" y="-112.8" font-family="Times,serif" font-size="14.00">Ord</text>
<text text-anchor="start" x="75" y="-97.8" font-family="Times,serif" font-size="14.00">via size</text>
</g>
<!-- Nc0b49edac90e4f6283c69fd89054183e&#45;&gt;Nb752bbd30a1947b9a8e32bc0c3f715a7 -->
<g id="edge3" class="edge">
<title>Nc0b49edac90e4f6283c69fd89054183e&#45;&gt;Nb752bbd30a1947b9a8e32bc0c3f715a7</title>
<path fill="none" stroke="black" d="M95.26,-180C95.4,-167.31 95.56,-151.84 95.7,-138.67"/>
<polygon fill="black" stroke="black" points="99.2,-138.32 95.81,-128.29 92.2,-138.25 99.2,-138.32"/>
</g>
<!-- N6efa67f2ae3743aa8f91165ca6726f01 -->
<g id="node2" class="node">
<title>N6efa67f2ae3743aa8f91165ca6726f01</title>
<text text-anchor="start" x="162.5" y="-202.3" font-family="Times,serif" font-size="14.00">Obj</text>
</g>
<!-- N0740baece49144d6a0e6cb90fa144bc1 -->
<g id="node3" class="node">
<title>N0740baece49144d6a0e6cb90fa144bc1</title>
<polygon fill="none" stroke="black" points="201,-128 143,-128 143,-90 201,-90 201,-128"/>
<text text-anchor="start" x="161" y="-112.8" font-family="Times,serif" font-size="14.00">Ord</text>
<text text-anchor="start" x="151" y="-97.8" font-family="Times,serif" font-size="14.00">via size</text>
</g>
<!-- N6efa67f2ae3743aa8f91165ca6726f01&#45;&gt;N0740baece49144d6a0e6cb90fa144bc1 -->
<g id="edge1" class="edge">
<title>N6efa67f2ae3743aa8f91165ca6726f01&#45;&gt;N0740baece49144d6a0e6cb90fa144bc1</title>
<path fill="none" stroke="black" d="M172.74,-180C172.6,-167.31 172.44,-151.84 172.3,-138.67"/>
<polygon fill="black" stroke="black" points="175.8,-138.25 172.19,-128.29 168.8,-138.32 175.8,-138.25"/>
</g>
<!-- N15a24d1f09ae45e5bdbbf878649c0c56 -->
<g id="node4" class="node">
<title>N15a24d1f09ae45e5bdbbf878649c0c56</title>
<polygon fill="none" stroke="black" points="165,-54 103,-54 103,-16 165,-16 165,-54"/>
<text text-anchor="start" x="123" y="-38.8" font-family="Times,serif" font-size="14.00">Ord</text>
<text text-anchor="start" x="111" y="-23.8" font-family="Times,serif" font-size="14.00">via ratio</text>
</g>
<!-- N0740baece49144d6a0e6cb90fa144bc1&#45;&gt;N15a24d1f09ae45e5bdbbf878649c0c56 -->
<g id="edge2" class="edge">
<title>N0740baece49144d6a0e6cb90fa144bc1&#45;&gt;N15a24d1f09ae45e5bdbbf878649c0c56</title>
<path fill="none" stroke="black" d="M162.41,-89.83C158.17,-81.79 153.09,-72.17 148.4,-63.29"/>
<polygon fill="black" stroke="black" points="151.48,-61.62 143.72,-54.41 145.29,-64.89 151.48,-61.62"/>
</g>
<!-- Nb752bbd30a1947b9a8e32bc0c3f715a7&#45;&gt;N15a24d1f09ae45e5bdbbf878649c0c56 -->
<g id="edge4" class="edge">
<title>Nb752bbd30a1947b9a8e32bc0c3f715a7&#45;&gt;N15a24d1f09ae45e5bdbbf878649c0c56</title>
<path fill="none" stroke="black" d="M105.59,-89.83C109.83,-81.79 114.91,-72.17 119.6,-63.29"/>
<polygon fill="black" stroke="black" points="122.71,-64.89 124.28,-54.41 116.52,-61.62 122.71,-64.89"/>
</g>
</g>
</svg>
