<?xml version="1.0" encoding="UTF-8" standalone="no"?>
<!DOCTYPE svg PUBLIC "-//W3C//DTD SVG 1.1//EN"
 "http://www.w3.org/Graphics/SVG/1.1/DTD/svg11.dtd">
<!-- Generated by graphviz version 2.43.0 (0)
 -->
<!-- Title: G Pages: 1 -->
<svg width="161pt" height="319pt"
 viewBox="0.00 0.00 161.00 319.00" xmlns="http://www.w3.org/2000/svg" xmlns:xlink="http://www.w3.org/1999/xlink">
<g id="graph0" class="graph" transform="scale(1 1) rotate(0) translate(4 315)">
<title>G</title>
<polygon fill="white" stroke="transparent" points="-4,4 -4,-315 157,-315 157,4 -4,4"/>
<g id="clust1" class="cluster">
<title>clusterNone</title>
<polygon fill="none" stroke="black" points="8,-8 8,-303 145,-303 145,-8 8,-8"/>
<text text-anchor="start" x="16" y="-288.8" font-family="Times,serif" font-weight="bold" font-size="14.00">TallestBuilding</text>
</g>
<!-- Nf1515a4b86934f1c8871393cc12ee2e3 -->
<g id="node1" class="node">
<title>Nf1515a4b86934f1c8871393cc12ee2e3</title>
<polygon fill="none" stroke="black" points="132.5,-54 19.5,-54 19.5,-16 132.5,-16 132.5,-54"/>
<text text-anchor="start" x="63.5" y="-38.8" font-family="Times,serif" font-size="14.00">Obj</text>
<text text-anchor="start" x="27.5" y="-23.8" font-family="Times,serif" font-size="14.00">via maximum</text>
</g>
<!-- Nb33dd84420a94797b06def543600b2e0 -->
<g id="node2" class="node">
<title>Nb33dd84420a94797b06def543600b2e0</title>
<polygon fill="none" stroke="black" points="81,-272 19,-272 19,-236 81,-236 81,-272"/>
<text text-anchor="start" x="27" y="-250.3" font-family="Times,serif" font-size="14.00">C(Obj)</text>
</g>
<!-- Nb33dd84420a94797b06def543600b2e0&#45;&gt;Nf1515a4b86934f1c8871393cc12ee2e3 -->
<g id="edge3" class="edge">
<title>Nb33dd84420a94797b06def543600b2e0&#45;&gt;Nf1515a4b86934f1c8871393cc12ee2e3</title>
<path fill="none" stroke="black" d="M43.47,-235.78C32.98,-205.42 15.26,-140.76 33,-90 36.6,-79.71 43.06,-69.92 49.91,-61.57"/>
<polygon fill="black" stroke="black" points="52.55,-63.86 56.5,-54.03 47.28,-59.25 52.55,-63.86"/>
</g>
<!-- N04e524ed9bca4d7da86539360f5eb334 -->
<g id="node4" class="node">
<title>N04e524ed9bca4d7da86539360f5eb334</title>
<ellipse fill="none" stroke="black" stroke-dasharray="5,2" cx="73" cy="-182" rx="18" ry="18"/>
</g>
<!-- Nb33dd84420a94797b06def543600b2e0&#45;&gt;N04e524ed9bca4d7da86539360f5eb334 -->
<g id="edge4" class="edge">
<title>Nb33dd84420a94797b06def543600b2e0&#45;&gt;N04e524ed9bca4d7da86539360f5eb334</title>
<path fill="none" stroke="black" d="M55.69,-235.7C58.31,-227.7 61.49,-218.02 64.41,-209.15"/>
<polygon fill="black" stroke="black" points="67.74,-210.22 67.54,-199.62 61.09,-208.03 67.74,-210.22"/>
</g>
<!-- N52df61ac31324478aed26a9a39f83999 -->
<g id="node3" class="node">
<title>N52df61ac31324478aed26a9a39f83999</title>
<polygon fill="none" stroke="black" points="130,-128 42,-128 42,-90 130,-90 130,-128"/>
<text text-anchor="start" x="72" y="-112.8" font-family="Times,serif" font-size="14.00">Ord</text>
<text text-anchor="start" x="50" y="-97.8" font-family="Times,serif" font-size="14.00">via height</text>
</g>
<!-- N52df61ac31324478aed26a9a39f83999&#45;&gt;Nf1515a4b86934f1c8871393cc12ee2e3 -->
<g id="edge2" class="edge">
<title>N52df61ac31324478aed26a9a39f83999&#45;&gt;Nf1515a4b86934f1c8871393cc12ee2e3</title>
<path fill="none" stroke="black" d="M83.48,-89.83C82.41,-82.13 81.14,-72.97 79.95,-64.42"/>
<polygon fill="black" stroke="black" points="83.4,-63.84 78.56,-54.41 76.47,-64.8 83.4,-63.84"/>
</g>
<!-- N04e524ed9bca4d7da86539360f5eb334&#45;&gt;N52df61ac31324478aed26a9a39f83999 -->
<g id="edge1" class="edge">
<title>N04e524ed9bca4d7da86539360f5eb334&#45;&gt;N52df61ac31324478aed26a9a39f83999</title>
<path fill="none" stroke="black" d="M76.08,-164.17C77.51,-156.39 79.24,-146.94 80.85,-138.12"/>
<polygon fill="black" stroke="black" points="84.31,-138.66 82.67,-128.2 77.42,-137.4 84.31,-138.66"/>
</g>
</g>
</svg>
