<?xml version="1.0" encoding="UTF-8" standalone="no"?>
<!DOCTYPE svg PUBLIC "-//W3C//DTD SVG 1.1//EN"
 "http://www.w3.org/Graphics/SVG/1.1/DTD/svg11.dtd">
<!-- Generated by graphviz version 2.43.0 (0)
 -->
<!-- Title: G Pages: 1 -->
<svg width="220pt" height="343pt"
 viewBox="0.00 0.00 220.38 343.00" xmlns="http://www.w3.org/2000/svg" xmlns:xlink="http://www.w3.org/1999/xlink">
<g id="graph0" class="graph" transform="scale(1 1) rotate(0) translate(4 339)">
<title>G</title>
<polygon fill="white" stroke="transparent" points="-4,4 -4,-339 216.38,-339 216.38,4 -4,4"/>
<g id="clust1" class="cluster">
<title>clusterNdba634fde57b451fbc1618b4dc1f8521</title>
<polygon fill="none" stroke="black" points="87,-252 87,-327 159,-327 159,-252 87,-252"/>
<text text-anchor="start" x="97" y="-312.8" font-family="Times,serif" font-style="italic" text-decoration="underline" font-size="14.00">Hospitals</text>
</g>
<g id="clust2" class="cluster">
<title>clusterN1165ccf6f8594927919cc47f8259a8f6</title>
<polygon fill="none" stroke="black" points="124,-156 124,-231 194,-231 194,-156 124,-156"/>
<text text-anchor="start" x="136.5" y="-216.8" font-family="Times,serif" font-style="italic" text-decoration="underline" font-size="14.00">Incident</text>
</g>
<g id="clust3" class="cluster">
<title>clusternab864e7fb0794aa9a3ae17e7c20b6d57b3</title>
<polygon fill="none" stroke="black" points="8,-8 8,-244 116,-244 116,-8 8,-8"/>
<text text-anchor="start" x="27.5" y="-229.8" font-family="Times,serif" font-weight="bold" font-size="14.00">NearObject</text>
<text text-anchor="start" x="17" y="-215.8" font-family="Times,serif" font-style="italic" font-size="14.00">Nearest hospital</text>
</g>
<!-- Ndba634fde57b451fbc1618b4dc1f8521 -->
<g id="node1" class="node">
<title>Ndba634fde57b451fbc1618b4dc1f8521</title>
<text text-anchor="start" x="103.5" y="-274.3" font-family="Times,serif" font-size="14.00">C(Obj)</text>
</g>
<!-- Nfda1fac2a4d4439c8def8b99881c796e -->
<g id="node4" class="node">
<title>Nfda1fac2a4d4439c8def8b99881c796e</title>
<ellipse fill="none" stroke="black" stroke-dasharray="5,2" cx="78" cy="-182" rx="18" ry="18"/>
</g>
<!-- Ndba634fde57b451fbc1618b4dc1f8521&#45;&gt;Nfda1fac2a4d4439c8def8b99881c796e -->
<g id="edge5" class="edge">
<title>Ndba634fde57b451fbc1618b4dc1f8521&#45;&gt;Nfda1fac2a4d4439c8def8b99881c796e</title>
<path fill="none" stroke="black" d="M111.03,-252C104.45,-238.26 96.32,-221.27 89.77,-207.59"/>
<polygon fill="black" stroke="black" points="92.93,-206.08 85.45,-198.57 86.62,-209.1 92.93,-206.08"/>
</g>
<!-- N461f3e4d9318444f9ebaf181ff372eff -->
<g id="node5" class="node">
<title>N461f3e4d9318444f9ebaf181ff372eff</title>
<polygon fill="none" stroke="black" points="108,-54 16,-54 16,-16 108,-16 108,-54"/>
<text text-anchor="start" x="51.5" y="-38.8" font-family="Times,serif" font-size="14.00">Obj</text>
<text text-anchor="start" x="24" y="-23.8" font-family="Times,serif" font-size="14.00">via minimum</text>
</g>
<!-- Ndba634fde57b451fbc1618b4dc1f8521&#45;&gt;N461f3e4d9318444f9ebaf181ff372eff -->
<g id="edge4" class="edge">
<title>Ndba634fde57b451fbc1618b4dc1f8521&#45;&gt;N461f3e4d9318444f9ebaf181ff372eff</title>
<path fill="none" stroke="black" d="M159,-270.16C173.69,-265.41 189.25,-257.41 198,-244 219.37,-211.25 214.09,-191.65 198,-156 178.88,-113.63 136.59,-80.22 104.21,-59.53"/>
<polygon fill="black" stroke="black" points="105.7,-56.34 95.36,-54.03 102.01,-62.29 105.7,-56.34"/>
</g>
<!-- N1165ccf6f8594927919cc47f8259a8f6 -->
<g id="node2" class="node">
<title>N1165ccf6f8594927919cc47f8259a8f6</title>
<text text-anchor="start" x="148.5" y="-178.3" font-family="Times,serif" font-size="14.00">Obj</text>
</g>
<!-- N82e20147fec842dbaf82c4410a2d07b6 -->
<g id="node3" class="node">
<title>N82e20147fec842dbaf82c4410a2d07b6</title>
<polygon fill="none" stroke="black" points="107.5,-128 26.5,-128 26.5,-90 107.5,-90 107.5,-128"/>
<text text-anchor="start" x="56" y="-112.8" font-family="Times,serif" font-size="14.00">Ord</text>
<text text-anchor="start" x="34.5" y="-97.8" font-family="Times,serif" font-size="14.00">via distance</text>
</g>
<!-- N1165ccf6f8594927919cc47f8259a8f6&#45;&gt;N82e20147fec842dbaf82c4410a2d07b6 -->
<g id="edge1" class="edge">
<title>N1165ccf6f8594927919cc47f8259a8f6&#45;&gt;N82e20147fec842dbaf82c4410a2d07b6</title>
<path fill="none" stroke="black" d="M126.61,-156C117.44,-148.92 107.47,-141.23 98.35,-134.2"/>
<polygon fill="black" stroke="black" points="100.4,-131.36 90.35,-128.02 96.13,-136.9 100.4,-131.36"/>
</g>
<!-- N82e20147fec842dbaf82c4410a2d07b6&#45;&gt;N461f3e4d9318444f9ebaf181ff372eff -->
<g id="edge3" class="edge">
<title>N82e20147fec842dbaf82c4410a2d07b6&#45;&gt;N461f3e4d9318444f9ebaf181ff372eff</title>
<path fill="none" stroke="black" d="M65.74,-89.83C65.2,-82.13 64.57,-72.97 63.97,-64.42"/>
<polygon fill="black" stroke="black" points="67.46,-64.15 63.28,-54.41 60.48,-64.63 67.46,-64.15"/>
</g>
<!-- Nfda1fac2a4d4439c8def8b99881c796e&#45;&gt;N82e20147fec842dbaf82c4410a2d07b6 -->
<g id="edge2" class="edge">
<title>Nfda1fac2a4d4439c8def8b99881c796e&#45;&gt;N82e20147fec842dbaf82c4410a2d07b6</title>
<path fill="none" stroke="black" d="M75.39,-164.17C74.19,-156.39 72.72,-146.94 71.36,-138.12"/>
<polygon fill="black" stroke="black" points="74.81,-137.54 69.82,-128.2 67.89,-138.62 74.81,-137.54"/>
</g>
</g>
</svg>
