<?xml version="1.0" encoding="UTF-8" standalone="no"?>
<!DOCTYPE svg PUBLIC "-//W3C//DTD SVG 1.1//EN"
 "http://www.w3.org/Graphics/SVG/1.1/DTD/svg11.dtd">
<!-- Generated by graphviz version 2.43.0 (0)
 -->
<!-- Title: %3 Pages: 1 -->
<svg width="448pt" height="404pt"
 viewBox="0.00 0.00 448.00 404.00" xmlns="http://www.w3.org/2000/svg" xmlns:xlink="http://www.w3.org/1999/xlink">
<g id="graph0" class="graph" transform="scale(1 1) rotate(0) translate(4 400)">
<title>%3</title>
<polygon fill="white" stroke="transparent" points="-4,4 -4,-400 444,-400 444,4 -4,4"/>
<!-- RR&#45;Ratio&#45;Ratio -->
<g id="node1" class="node">
<title>RR&#45;Ratio&#45;Ratio</title>
<polygon fill="none" stroke="black" points="306,-36 184,-36 184,0 306,0 306,-36"/>
<text text-anchor="middle" x="245" y="-14.3" font-family="Times,serif" font-size="14.00">R(Ratio, Ratio)</text>
</g>
<!-- RR&#45;Ord&#45;Ratio -->
<g id="node2" class="node">
<title>RR&#45;Ord&#45;Ratio</title>
<polygon fill="none" stroke="black" points="205.5,-108 94.5,-108 94.5,-72 205.5,-72 205.5,-108"/>
<text text-anchor="middle" x="150" y="-86.3" font-family="Times,serif" font-size="14.00">R(Ord, Ratio)</text>
</g>
<!-- RR&#45;Ratio&#45;Ratio&#45;&gt;RR&#45;Ord&#45;Ratio -->
<g id="edge1" class="edge">
<title>RR&#45;Ratio&#45;Ratio&#45;&gt;RR&#45;Ord&#45;Ratio</title>
<path fill="none" stroke="black" d="M221.52,-36.3C209.44,-45.2 194.55,-56.18 181.48,-65.8"/>
<polygon fill="black" stroke="black" points="179.19,-63.15 173.21,-71.9 183.34,-68.78 179.19,-63.15"/>
</g>
<!-- RR&#45;Ratio&#45;Ord -->
<g id="node3" class="node">
<title>RR&#45;Ratio&#45;Ord</title>
<polygon fill="none" stroke="black" points="334.5,-108 223.5,-108 223.5,-72 334.5,-72 334.5,-108"/>
<text text-anchor="middle" x="279" y="-86.3" font-family="Times,serif" font-size="14.00">R(Ratio, Ord)</text>
</g>
<!-- RR&#45;Ratio&#45;Ratio&#45;&gt;RR&#45;Ratio&#45;Ord -->
<g id="edge2" class="edge">
<title>RR&#45;Ratio&#45;Ratio&#45;&gt;RR&#45;Ratio&#45;Ord</title>
<path fill="none" stroke="black" d="M253.4,-36.3C257.27,-44.27 261.95,-53.9 266.24,-62.74"/>
<polygon fill="black" stroke="black" points="263.17,-64.43 270.69,-71.9 269.47,-61.37 263.17,-64.43"/>
</g>
<!-- RR&#45;Ord&#45;Ord -->
<g id="node4" class="node">
<title>RR&#45;Ord&#45;Ord</title>
<polygon fill="none" stroke="black" points="225.5,-180 124.5,-180 124.5,-144 225.5,-144 225.5,-180"/>
<text text-anchor="middle" x="175" y="-158.3" font-family="Times,serif" font-size="14.00">R(Ord, Ord)</text>
</g>
<!-- RR&#45;Ord&#45;Ratio&#45;&gt;RR&#45;Ord&#45;Ord -->
<g id="edge3" class="edge">
<title>RR&#45;Ord&#45;Ratio&#45;&gt;RR&#45;Ord&#45;Ord</title>
<path fill="none" stroke="black" d="M156.18,-108.3C159,-116.19 162.39,-125.7 165.52,-134.45"/>
<polygon fill="black" stroke="black" points="162.23,-135.66 168.89,-143.9 168.82,-133.3 162.23,-135.66"/>
</g>
<!-- RR&#45;Qlt&#45;Ratio -->
<g id="node5" class="node">
<title>RR&#45;Qlt&#45;Ratio</title>
<polygon fill="none" stroke="black" points="106,-180 0,-180 0,-144 106,-144 106,-180"/>
<text text-anchor="middle" x="53" y="-158.3" font-family="Times,serif" font-size="14.00">R(Qlt, Ratio)</text>
</g>
<!-- RR&#45;Ord&#45;Ratio&#45;&gt;RR&#45;Qlt&#45;Ratio -->
<g id="edge4" class="edge">
<title>RR&#45;Ord&#45;Ratio&#45;&gt;RR&#45;Qlt&#45;Ratio</title>
<path fill="none" stroke="black" d="M126.02,-108.3C113.69,-117.2 98.48,-128.18 85.15,-137.8"/>
<polygon fill="black" stroke="black" points="82.76,-135.21 76.7,-143.9 86.86,-140.88 82.76,-135.21"/>
</g>
<!-- RR&#45;Ratio&#45;Ord&#45;&gt;RR&#45;Ord&#45;Ord -->
<g id="edge5" class="edge">
<title>RR&#45;Ratio&#45;Ord&#45;&gt;RR&#45;Ord&#45;Ord</title>
<path fill="none" stroke="black" d="M253.56,-108.12C240.21,-117.11 223.68,-128.24 209.22,-137.97"/>
<polygon fill="black" stroke="black" points="206.88,-135.32 200.54,-143.81 210.79,-141.13 206.88,-135.32"/>
</g>
<!-- RR&#45;Ratio&#45;Qlt -->
<g id="node6" class="node">
<title>RR&#45;Ratio&#45;Qlt</title>
<polygon fill="none" stroke="black" points="350,-180 244,-180 244,-144 350,-144 350,-180"/>
<text text-anchor="middle" x="297" y="-158.3" font-family="Times,serif" font-size="14.00">R(Ratio, Qlt)</text>
</g>
<!-- RR&#45;Ratio&#45;Ord&#45;&gt;RR&#45;Ratio&#45;Qlt -->
<g id="edge6" class="edge">
<title>RR&#45;Ratio&#45;Ord&#45;&gt;RR&#45;Ratio&#45;Qlt</title>
<path fill="none" stroke="black" d="M283.45,-108.3C285.45,-116.1 287.87,-125.49 290.1,-134.17"/>
<polygon fill="black" stroke="black" points="286.72,-135.08 292.6,-143.9 293.5,-133.34 286.72,-135.08"/>
</g>
<!-- RR&#45;Qlt&#45;Ord -->
<g id="node7" class="node">
<title>RR&#45;Qlt&#45;Ord</title>
<polygon fill="none" stroke="black" points="165.5,-252 70.5,-252 70.5,-216 165.5,-216 165.5,-252"/>
<text text-anchor="middle" x="118" y="-230.3" font-family="Times,serif" font-size="14.00">R(Qlt, Ord)</text>
</g>
<!-- RR&#45;Ord&#45;Ord&#45;&gt;RR&#45;Qlt&#45;Ord -->
<g id="edge10" class="edge">
<title>RR&#45;Ord&#45;Ord&#45;&gt;RR&#45;Qlt&#45;Ord</title>
<path fill="none" stroke="black" d="M160.91,-180.3C154.08,-188.7 145.74,-198.93 138.24,-208.14"/>
<polygon fill="black" stroke="black" points="135.53,-205.93 131.93,-215.9 140.96,-210.35 135.53,-205.93"/>
</g>
<!-- RR&#45;Ord&#45;Qlt -->
<g id="node8" class="node">
<title>RR&#45;Ord&#45;Qlt</title>
<polygon fill="none" stroke="black" points="278.5,-252 183.5,-252 183.5,-216 278.5,-216 278.5,-252"/>
<text text-anchor="middle" x="231" y="-230.3" font-family="Times,serif" font-size="14.00">R(Ord, Qlt)</text>
</g>
<!-- RR&#45;Ord&#45;Ord&#45;&gt;RR&#45;Ord&#45;Qlt -->
<g id="edge9" class="edge">
<title>RR&#45;Ord&#45;Ord&#45;&gt;RR&#45;Ord&#45;Qlt</title>
<path fill="none" stroke="black" d="M188.84,-180.3C195.49,-188.61 203.58,-198.72 210.89,-207.86"/>
<polygon fill="black" stroke="black" points="208.34,-210.27 217.32,-215.9 213.8,-205.9 208.34,-210.27"/>
</g>
<!-- RR&#45;Qlt&#45;Ratio&#45;&gt;RR&#45;Qlt&#45;Ord -->
<g id="edge7" class="edge">
<title>RR&#45;Qlt&#45;Ratio&#45;&gt;RR&#45;Qlt&#45;Ord</title>
<path fill="none" stroke="black" d="M69.07,-180.3C76.94,-188.78 86.56,-199.14 95.17,-208.42"/>
<polygon fill="black" stroke="black" points="92.75,-210.95 102.12,-215.9 97.88,-206.19 92.75,-210.95"/>
</g>
<!-- RR&#45;Ratio&#45;Qlt&#45;&gt;RR&#45;Ord&#45;Qlt -->
<g id="edge8" class="edge">
<title>RR&#45;Ratio&#45;Qlt&#45;&gt;RR&#45;Ord&#45;Qlt</title>
<path fill="none" stroke="black" d="M280.69,-180.3C272.69,-188.78 262.93,-199.14 254.18,-208.42"/>
<polygon fill="black" stroke="black" points="251.44,-206.22 247.13,-215.9 256.53,-211.02 251.44,-206.22"/>
</g>
<!-- RR&#45;Qlt&#45;Qlt -->
<g id="node9" class="node">
<title>RR&#45;Qlt&#45;Qlt</title>
<polygon fill="none" stroke="black" points="219,-324 129,-324 129,-288 219,-288 219,-324"/>
<text text-anchor="middle" x="174" y="-302.3" font-family="Times,serif" font-size="14.00">R(Qlt, Qlt)</text>
</g>
<!-- RR&#45;Qlt&#45;Ord&#45;&gt;RR&#45;Qlt&#45;Qlt -->
<g id="edge12" class="edge">
<title>RR&#45;Qlt&#45;Ord&#45;&gt;RR&#45;Qlt&#45;Qlt</title>
<path fill="none" stroke="black" d="M131.84,-252.3C138.49,-260.61 146.58,-270.72 153.89,-279.86"/>
<polygon fill="black" stroke="black" points="151.34,-282.27 160.32,-287.9 156.8,-277.9 151.34,-282.27"/>
</g>
<!-- RR&#45;Ord&#45;Qlt&#45;&gt;RR&#45;Qlt&#45;Qlt -->
<g id="edge11" class="edge">
<title>RR&#45;Ord&#45;Qlt&#45;&gt;RR&#45;Qlt&#45;Qlt</title>
<path fill="none" stroke="black" d="M216.91,-252.3C210.08,-260.7 201.74,-270.93 194.24,-280.14"/>
<polygon fill="black" stroke="black" points="191.53,-277.93 187.93,-287.9 196.96,-282.35 191.53,-277.93"/>
</g>
<!-- RR -->
<g id="node13" class="node">
<title>RR</title>
<polygon fill="none" stroke="black" points="201,-396 147,-396 147,-360 201,-360 201,-396"/>
<text text-anchor="middle" x="174" y="-374.3" font-family="Times,serif" font-size="14.00">R</text>
</g>
<!-- RR&#45;Qlt&#45;Qlt&#45;&gt;RR -->
<g id="edge15" class="edge">
<title>RR&#45;Qlt&#45;Qlt&#45;&gt;RR</title>
<path fill="none" stroke="black" d="M174,-324.3C174,-332.02 174,-341.29 174,-349.89"/>
<polygon fill="black" stroke="black" points="170.5,-349.9 174,-359.9 177.5,-349.9 170.5,-349.9"/>
</g>
<!-- ROrd -->
<g id="node10" class="node">
<title>ROrd</title>
<polygon fill="none" stroke="black" points="440,-108 386,-108 386,-72 440,-72 440,-108"/>
<text text-anchor="middle" x="413" y="-86.3" font-family="Times,serif" font-size="14.00">Ord</text>
</g>
<!-- RQlt -->
<g id="node11" class="node">
<title>RQlt</title>
<polygon fill="none" stroke="black" points="440,-180 386,-180 386,-144 440,-144 440,-180"/>
<text text-anchor="middle" x="413" y="-158.3" font-family="Times,serif" font-size="14.00">Qlt</text>
</g>
<!-- ROrd&#45;&gt;RQlt -->
<g id="edge13" class="edge">
<title>ROrd&#45;&gt;RQlt</title>
<path fill="none" stroke="black" d="M413,-108.3C413,-116.02 413,-125.29 413,-133.89"/>
<polygon fill="black" stroke="black" points="409.5,-133.9 413,-143.9 416.5,-133.9 409.5,-133.9"/>
</g>
<!-- RRatio -->
<g id="node12" class="node">
<title>RRatio</title>
<polygon fill="none" stroke="black" points="440,-36 386,-36 386,0 440,0 440,-36"/>
<text text-anchor="middle" x="413" y="-14.3" font-family="Times,serif" font-size="14.00">Ratio</text>
</g>
<!-- RRatio&#45;&gt;ROrd -->
<g id="edge14" class="edge">
<title>RRatio&#45;&gt;ROrd</title>
<path fill="none" stroke="black" d="M413,-36.3C413,-44.02 413,-53.29 413,-61.89"/>
<polygon fill="black" stroke="black" points="409.5,-61.9 413,-71.9 416.5,-61.9 409.5,-61.9"/>
</g>
</g>
</svg>
